# xmcd CD database file
#
# Track frame offsets:
#	150
#	37156
#	71809
#	105686
#	137178
#	170800
#	203993
#
# Disc length: 3148 seconds
#
# Revision: 0
# Processed by: cddbd v1.5PL3 Copyright (c) Steve Scherf et al.
# Submitted via: CDex 1.51
#
DISCID=700c4a07
DTITLE=Dan Gibson - Dance Of The Hummingbird
DYEAR=1998
DGENRE=New Age
TTITLE0=Shimmering Air
TTITLE1=Rêverie
TTITLE2=Basking In The Warmth
TTITLE3=Timeless Wonder
TTITLE4=Sojourn
TTITLE5=Wings At Rest
TTITLE6=Silent Epiphany
EXTD=YEAR: 1998
EXTT0=
EXTT1=
EXTT2=
EXTT3=
EXTT4=
EXTT5=
EXTT6=
PLAYORDER=
